<svg xmlns="http://www.w3.org/2000/svg" viewBox="0 0 64 64">
  <defs>
    <linearGradient id="bg" x1="8" x2="58" y1="6" y2="60" gradientUnits="userSpaceOnUse">
      <stop offset="0" stop-color="#222a55" />
      <stop offset="0.5" stop-color="#263f69" />
      <stop offset="1" stop-color="#41265f" />
    </linearGradient>
    <linearGradient id="pride" x1="8" x2="56" y1="18" y2="46" gradientUnits="userSpaceOnUse">
      <stop offset="0" stop-color="#ff3a60" />
      <stop offset="0.18" stop-color="#ffb547" />
      <stop offset="0.36" stop-color="#ffec5c" />
      <stop offset="0.54" stop-color="#41e377" />
      <stop offset="0.72" stop-color="#3ba7ff" />
      <stop offset="1" stop-color="#9f5fff" />
    </linearGradient>
    <radialGradient id="heart" cx="37%" cy="30%" r="70%">
      <stop offset="0" stop-color="#fff6b8" />
      <stop offset="0.48" stop-color="#ff5f98" />
      <stop offset="1" stop-color="#a88cff" />
    </radialGradient>
    <filter id="glow" x="-40%" y="-40%" width="180%" height="180%">
      <feGaussianBlur stdDeviation="2.8" result="blur" />
      <feMerge>
        <feMergeNode in="blur" />
        <feMergeNode in="SourceGraphic" />
      </feMerge>
    </filter>
  </defs>
  <rect width="64" height="64" rx="16" fill="url(#bg)" />
  <path d="M8 39C15 19 35 10 56 20" fill="none" stroke="url(#pride)" stroke-width="5" stroke-linecap="round" opacity="0.92" filter="url(#glow)" />
  <path d="M10 44C24 54 45 54 57 37" fill="none" stroke="#7df7c2" stroke-width="3" stroke-linecap="round" opacity="0.72" />
  <path d="M31.7 47.5C20.9 38.4 17 33.3 17 27.5c0-4.9 3.6-8.5 8.4-8.5 2.9 0 5.2 1.4 6.6 3.5 1.4-2.1 3.7-3.5 6.6-3.5 4.8 0 8.4 3.6 8.4 8.5 0 5.8-3.9 10.9-14.7 20a1 1 0 0 1-1.3 0z" fill="url(#heart)" stroke="#ffffff" stroke-opacity="0.42" stroke-width="1.6" />
  <path d="M25 32.2l5 5.1 10.2-12" fill="none" stroke="#ffffff" stroke-width="4.2" stroke-linecap="round" stroke-linejoin="round" filter="url(#glow)" />
  <circle cx="52" cy="18" r="5.2" fill="#ffec5c" filter="url(#glow)" />
  <circle cx="12" cy="42" r="3.2" fill="#65f3d0" />
  <circle cx="48" cy="47" r="2.6" fill="#ff5f98" />
</svg>
