<svg xmlns="http://www.w3.org/2000/svg" viewBox="0 0 64 64">
  <defs>
    <linearGradient id="sky" x1="8" x2="56" y1="6" y2="58" gradientUnits="userSpaceOnUse">
      <stop offset="0" stop-color="#ff5f98" />
      <stop offset="0.22" stop-color="#ffcf6d" />
      <stop offset="0.45" stop-color="#65f3d0" />
      <stop offset="0.68" stop-color="#3ba7ff" />
      <stop offset="1" stop-color="#a88cff" />
    </linearGradient>
    <linearGradient id="panel" x1="18" x2="48" y1="14" y2="52" gradientUnits="userSpaceOnUse">
      <stop offset="0" stop-color="#ffffff" stop-opacity="0.92" />
      <stop offset="1" stop-color="#dfe7ff" stop-opacity="0.72" />
    </linearGradient>
    <filter id="glow" x="-30%" y="-30%" width="160%" height="160%">
      <feGaussianBlur stdDeviation="2.8" result="blur" />
      <feMerge>
        <feMergeNode in="blur" />
        <feMergeNode in="SourceGraphic" />
      </feMerge>
    </filter>
  </defs>
  <rect width="64" height="64" rx="16" fill="#202b48" />
  <path d="M8 46C18 28 30 20 56 17" fill="none" stroke="url(#sky)" stroke-width="5" stroke-linecap="round" opacity="0.9" filter="url(#glow)" />
  <path d="M12 20C26 8 43 9 56 24" fill="none" stroke="#65f3d0" stroke-width="2.8" stroke-linecap="round" opacity="0.72" />
  <rect x="16" y="15" width="34" height="38" rx="9" fill="url(#panel)" stroke="#ffffff" stroke-opacity="0.42" stroke-width="2" />
  <rect x="16" y="15" width="34" height="12" rx="8" fill="#ff5f98" />
  <path d="M16 23h34" stroke="#ffffff" stroke-opacity="0.55" stroke-width="2" />
  <path d="M25 11v9M41 11v9" stroke="#fff6b8" stroke-width="4" stroke-linecap="round" />
  <circle cx="27" cy="35" r="4" fill="#202b48" opacity="0.88" />
  <circle cx="39" cy="35" r="4" fill="#202b48" opacity="0.88" />
  <path d="M25 45h16" stroke="#202b48" stroke-width="4" stroke-linecap="round" opacity="0.82" />
  <circle cx="52" cy="16" r="5" fill="#ffcf6d" filter="url(#glow)" />
</svg>
